<svg width="20" height="20" viewBox="0 0 20 20" fill="none" xmlns="http://www.w3.org/2000/svg">
<path d="M4.16667 8.33329H5.83333C7.5 8.33329 8.33333 7.49996 8.33333 5.83329V4.16663C8.33333 2.49996 7.5 1.66663 5.83333 1.66663H4.16667C2.5 1.66663 1.66667 2.49996 1.66667 4.16663V5.83329C1.66667 7.49996 2.5 8.33329 4.16667 8.33329Z" stroke="white" stroke-width="1.25" stroke-miterlimit="10" stroke-linecap="round" stroke-linejoin="round"/>
<path d="M14.1667 8.33329H15.8333C17.5 8.33329 18.3333 7.49996 18.3333 5.83329V4.16663C18.3333 2.49996 17.5 1.66663 15.8333 1.66663H14.1667C12.5 1.66663 11.6667 2.49996 11.6667 4.16663V5.83329C11.6667 7.49996 12.5 8.33329 14.1667 8.33329Z" stroke="white" stroke-width="1.25" stroke-miterlimit="10" stroke-linecap="round" stroke-linejoin="round"/>
<path d="M14.1667 18.3333H15.8333C17.5 18.3333 18.3333 17.5 18.3333 15.8333V14.1666C18.3333 12.5 17.5 11.6666 15.8333 11.6666H14.1667C12.5 11.6666 11.6667 12.5 11.6667 14.1666V15.8333C11.6667 17.5 12.5 18.3333 14.1667 18.3333Z" stroke="white" stroke-width="1.25" stroke-miterlimit="10" stroke-linecap="round" stroke-linejoin="round"/>
<path d="M4.16667 18.3333H5.83333C7.5 18.3333 8.33333 17.5 8.33333 15.8333V14.1666C8.33333 12.5 7.5 11.6666 5.83333 11.6666H4.16667C2.5 11.6666 1.66667 12.5 1.66667 14.1666V15.8333C1.66667 17.5 2.5 18.3333 4.16667 18.3333Z" stroke="white" stroke-width="1.25" stroke-miterlimit="10" stroke-linecap="round" stroke-linejoin="round"/>
</svg>
